# xmcd
#
# Track frame offsets: 
#        150
#        13366
#        29975
#        47738
#        67150
#        87151
#        105508
#        122439
#        141994
#        159943
#        176265
#        202423
#
# Disc length: 2726 seconds
#
# Revision: 0
# Processed by: cddbd v1.5.2PL0 Copyright (c) Steve Scherf et al.
# Submitted via: ExactAudioCopy v0.99pb5
#
DISCID=ad0aa40c
DTITLE=Max Stalling - Home To You
DYEAR=2010
DGENRE=Country
TTITLE0=Long Way To Get
TTITLE1=Have I Ever Told You?
TTITLE2=I Ain't Drinking Alone
TTITLE3=I've Got Something
TTITLE4=6X9 Speakers-Revisited
TTITLE5=Home To You
TTITLE6=All I Ever Wanted To Do
TTITLE7=Saddest Song Ever
TTITLE8=I Could Be Wrong
TTITLE9=Crazy Like That
TTITLE10=Fantasy Dinner
TTITLE11=Long Way To Get Reprise
EXTD=
EXTT0=
EXTT1=
EXTT2=
EXTT3=
EXTT4=
EXTT5=
EXTT6=
EXTT7=
EXTT8=
EXTT9=
EXTT10=
EXTT11=
PLAYORDER=
